<svg width="302.478" height="222.454" viewBox="0 0 372.143 273.689" xmlns="http://www.w3.org/2000/svg">
    <path fill="red" stroke="#000" d="M218.42 9.225c.105 1.11.15 2.394 0 3.478-2.002 6.955-9.09 
    1.048-3.254-2.455 1.137-.682 2.151-.76 3.253-1.023zm-30.718 50.678c13.816-2.91 15.65-28.554 
    22.527-35.335 1.957-1.93 4.002-2.472 6.568-3.11 2.23 8.545-6.198 15.588-6.242 21.844-.044 
    6.562 6.7 4.22 9.734 1.564 1.428-1.25 2.627-2.691 3.782-4.185 2.645-3.426 3.333-4.972 
    6.833-7.864-.573 5.356-5.757 17.195-9.743 20.786-6.788 6.117-13.868 
    3.592-17.589-4.185h-1.763c-1.385 5.837-5.317 14.985-9.778 19.04-2.257 2.044-5.572 4.254-8.552
    2.245-6.155-4.16-2.751-15.3-1.949-21.285-5.202 5.417-6.022 17.405-9.69 24.465-1.701 
    3.268-4.54 6.955-8.746 5.453-1.649-.586-4.611-3.356-6.25-4.579-2.073 7.261-9.056 
    21.372-18.516 19.8-2.963-.499-7.054-4.064-9.699-5.82-1.093 5.968-4.531 14.103-9.716 
    17.606-3.835 2.595-8.235 3.46-10.941-1.1-1.728-2.91-1.57-6.405-.547-9.516.617-1.86 
    2.354-4.832 1.499-6.771-1.525-3.478-5.749-.035-7.16 1.616-3.826 4.474-4.187 11.787-7.52 
    18.262H92.48l2.645-11.36c-1.411-.244-2.654-.226-3.721-1.397-2.962-3.233.97-13.063 
    3.394-15.955 1.411-1.678 2.01-1.826 3.853-2.744l.882 3.495c3.782-1.677 14.521-9.637 
    17.986-6.43 3.897 3.6-3.12 11.979-3.782 16.915-.362 2.71.89 6.545 4.32 6.073 4.338-.603 
    8.208-8.51 9.531-12.189 4.144-11.525 2.469-20.044 15.147-26.213 4.444 9.996-6.762 
    14.907-5.73 22.7.934 7.043 9.574 1.836 12.114-1.04 2.512-2.839 7.608-11.9 8.825-15.543 
    2.804-8.353 1.358-15.693 12.123-17.475-.855 4.517-1.798 5.54-3.324 9.61-.705 1.87-2.31 
    6.808-2.16 8.669.22 2.83 2.178 2.708 3.73.769 1.208-1.503 3.315-7.279 4.276-9.437 
    2.037-4.561 7.503-15.343 10.28-19.188 1.702-2.35 5.458-6.483 8.262-3.12 2.213 2.5.908 5.69 0 
    8.328-2.672 6.972-3.404 9.113-3.43 16.601zm-42.32-16.601c.705 1.529 1.357 2.621 1.48 4.369.16 
    2.376-1.093 5.67-3.43 6.675-2.882 1.24-6.48-1.337-5.404-4.92.467-1.59 1.702-2.83 2.998-3.809 
    1.322-1.013 2.848-1.634 4.355-2.315zM39.58 101.844c-3.139 2.018-9.408 6.125-13.19 
    5.897-6.983-.419-5.572-12.197-3.297-16.383 2.354-4.342 8.102-8.947 12.079-11.909 8.472-6.3 
    19.423-12.573 29.095-16.907 4.743-2.123 10.545-5.767 15.87-4.404 4.77 1.223 7.23 4.823 6.648 
    9.629l-1.843 8.738-4.329 21.844c-.926 4.849-2.486 8.134-2.354 13.254.132 4.859-.08 
    16.016-3.967 19.415-3.025 2.64-5.405-1.136-5.934-3.835-.538-2.805 2.442-14.06 3.289-17.476l3.667-15.727 
    5.705-25.34c-7.997 2.91-27.385 14.837-34.386 20.202-4.708 3.609-9.76 7.584-12.343 
    13.002zm130.488 146.79c-5.352 3.959-7.027 7.777-14.107 9.796-13.278 
    3.783-31.722-8.913-40.548-17.668l-7.344-8.484c-2.936-2.77-5.273-2.36-8.456-4.63-3.861-2.753-6.665-9.333-7.035-13.963-.485-5.872 
    2.036-7.995 3.632-13.107.996-3.198 1.014-6.78 3.589-9.244 3.658-3.521 8.772-2.621 
    10.827-3.076 2.063-.463 3.438-1.887 5.66-2.106 4.532-.436 10.35 3.696 12.343 7.436l-4.408 
    1.748 4.24 6.116c2.46 5.33-3.394 12.145-7.582 10.782-2.468-.795-3.835-4.605-6.268-4.998-1.834-.297-2.398 
    1.547-2.443 2.971-.079 2.333 1.552 5.758 2.584 7.846 1.842 3.749 3.932 7.515 7.706 9.673 
    3.332 1.896 17.633 2.534 22.042 2.56 2.186.017 4.831-.175 6.56 1.398 1.957 1.774 2.635 7.217 
    6.33 8.038 3.27.726 5.096-3.267 11.797-4.194 2.794 8.878 11.505 3.941 17.633 7.864-4.32 
    1.11-5.202 1.73-7.935 5.243 2.363.568 8.35.708 9.54 2.245 1.975 2.552.29 8.249-5.087 
    7.078-2.892-.63-3.554-2.875-5.564-3.967-1.878-.804-4.752-.262-6.824 0zm-16.752-31.454c.432-7.61 
    5.828-14.417 14.107-13.788 3.21.244 6.013 1.878 8.817 3.302v2.622c-9.09 4.535-7.838 
    1.38-13.225 2.892zm-9.698 16.6h-1.763c-4.365 4.981-5.581 3.077-11.462 1.748 3.976 8.458 
    4.805 3.46 2.645 13.107 10.386-1.896 7.15.445 14.988 5.242l-1.763-6.99 7.053-.873c-3.747-5.994-7.52-2.141-9.698-12.233z"/>
    <path fill="#00008b" stroke="#000" d="M182.029 87.165c2.548-4.534 5.096-3.704 
    9.698-4.875l16.752-3.565c5.158-1.049 9.055-2.621 13.225 1.45l-14.107 3.495v2.622l7.054 
    1.747c-6.56 2.988-5.493 5.767-9.161 9.253-2.451 2.324-14.001 6.03-15.315 14.339l1.402 
    15.727c.15 1.6.406 5.042-.723 6.309-1.649 
    1.852-4.514.463-6.18-.568l-12.344-9.14c-3.509-1.974-5.687-1.118-7.935-4.465l-1.763.874-.882-.874.882-2.62c-2.125-1.888-2.125-3.356 
    0-5.243-.274-2.884-.468-4.413 2.645-5.243l-.882-2.621 7.935-7.864c.723-3.783 2.354-5.4 
    6.172-6.116zm37.912-8.737h-.882l.882.874zm-42.32 11.359h-.883l.882.873zm-1.764 1.747h-.882l.882.874zm-.882.874h-.882l.882.874zm-.882.874h-.881l.881.873zm-5.29 
    6.116h-.881l.881.874zm-63.48 29.708l7.053-4.876c2.724-1.476 4.408-1.136 6.586-3.259 
    4.673-4.543 2.716-8.545 11.048-11.962l3.526 20.097-1.763-.874v2.621c3.042 1.04 3.042 6.877 
    2.645 9.612l.882 1.747 2.645 1.748c-3.712-.236-14.213.384-13.428 6.125.45 3.268 5.343 4.893 
    5.528 8.763l-3.562 13.072-2.645.874 2.645 1.747-2.645-3.495c-3.553-1.083-4.215-1.503-4.409-5.242-3.65-.848-3.853-2.709-3.526-6.117-3.14-2.036-3.13-3.46-2.645-6.99l-1.764.874.882-3.495c-3.659-1.118-3.253-6.536-2.645-9.611l-.882-2.622c-2.662-2.175-2.662-5.496-3.526-8.737zm22.042-18.35h-.882l.882.875zm36.148 
    7.865h-.881l.881.873zm-34.385 37.571h-.882l.882.874zm-12.344 5.243h-.881l.881.874zm-28.213 
    4.369c3.465 3.757 8.358 10.555 7.935 15.727 5.978 3.862 2.469 9.114.767 13.98l-1.455 
    6.117-4.602 11.359-4.409-6.99c3.333-5.243-3.006-5.042-4.408-10.486-.864-3.355 2.275-5.216 
    2.6-7.829.283-2.263-2.142-4.456-3.482-6.15l3.527-.875c1.084-3.862 1.852-4.613-1.763-6.99 
    1.252-4.194 1.93-5.041 5.29-7.863zm31.74 1.747h-.882l.882.874zm-29.977.874h-.882l.882.874zm-5.29 
    3.495h-.882l.882.874zm7.935.874h-.882l.882.873zm.882 1.747h-.882l.882.874zm2.645 
    4.369h-.882l.882.874zm125.198 46.31c-2.425 4.962-6.392 6.945-10.58 10.414-2.24 1.853-5.458 
    4.325-6.56 7.06-1.499 3.722 1.085 6.57 6.56 4.028 6.11-2.84 17.519-13.744 23.805-18.506 
    1.931-1.468 6.613-5.085 9.187-3.556 2.249 1.337.565 4.666-.502 6.169-3.183 4.508-8.376 
    8.03-11.198 12.739-1.604 2.682-2.16 5.67 1.684 6.58 5.44 1.275 12.485-5.523 15.633-9.201 
    3.306-3.862 5.06-8.825 7.855-13.107 5.185-7.96 14.671-18.716 22.307-24.334 3.685-2.7 
    8.737-6.58 13.225-7.532 4.012-.847 6.577.306 5.854 4.78-.714 4.439-5.316 9.183-8.5 
    12.154l-23.725 19.991c-3.465 2.91-11.215 9.07-8.729 14.13 2.487 5.032 8.323 5.224 11.542.812 
    2.036-2.788 2.239-7.55 4.161-11.263 3.403 5.828 8.297.891 12.344-1.748-1.402 6.291-3.333 
    6.204.881 11.36-2.468.14-3.853.165-6.172 1.257-5.334 2.508-24.678 19.975-28.628 
    3.111-.485-2.053-.45-4.028-.467-6.116-8.173 4.01-10.536 13.508-24.687 
    13.089-3.676-.105-6.41-.498-6.771-4.736l.6-7.48c-4.197 2.971-8.606 8.24-12.344 
    10.092-6.798 3.364-12.361-1.197-12.009-8.344.468-9.506 9.011-21.398 19.062-22.42 2.266-.236 
    3.968.192 6.172.576zm69.653-20.971c-4.559-.594-6.19 1.354-9.699 4.072-4.602 3.565-16.284 
    13.263-17.704 18.646-.502 1.59-.176 2.053 0 3.495 8.711-4.194 24.37-17.152 
    27.403-26.213zM88.57 205.996h-.882l.882.874zm2.645 3.495h-.882l.882.874zm198.377 
    34.95l10.58-7.95c7.706-5.776 18.427-11.254 28.214-11.988 3.544-.263 10.298.655 10.774 
    5.12.309 2.997-3.544 7.296-5.299 9.576-3.79 4.92-4.452 6.082-4.593 
    12.233l19.397-8.738c-1.296 7.916-10.66 12.705-17.634 15.317-4.126 1.556-9.813 
    2.027-9.99-3.958-.087-2.761 2.646-7.785 3.818-10.485-9.698 4.334-22.5 21.643-32.234 
    6.973-1.313-1.984-2.213-3.889-3.033-6.1zm-14.107-11.358c3.174-3.46 11.065-6.973 
    13.226-.874-5.617-2.298-7.794-1.45-13.226.874zm52.901 0c-7.53-1.957-17.598 3.137-23.805 
    7.2-2.284 1.494-6.895 5.024-5.176 8.257 1.623 3.05 6.428 1.013 8.703 0 6.542-2.91 
    17.183-9.026 20.278-15.457zm-54.664.874h.882l-.882.873z"/>
    <path fill="snow" stroke="#000" d="M133.038 100.096c4.073 0 17.298.638 20.243-.891 
    2.478-1.285 4.823-4.77 7.124-6.79 4.435-3.896 14.24-8.414 20.243-7.173-7.062 5.016-21.953 
    20.306-21.001 29.708.282 2.726 1.93 4.753 3.368 7.173-1.455-.148-2.98-.2-4.409 0-9.83 
    2.901-1.33 12.338-6.55 17.939-3.166 3.206-12.988 4.753-15.527 0-3.765-6.798-3.156-21.259-6.136-30.355 
    4.108-3.722 3.05-4.447 2.645-9.61zm-31.74 38.445c-5.855 2.325-7.028 5.391-10.07 10.485-1.163 
    1.94-3.068 5.566-5.713 5.566-4.902 0-.573-7.41.459-9.06 3.659-5.881 12.343-12.382 
    18.85-14.854 1.437 10.572 5.37 24.91 10.836 34.076 4.03 6.772 7.089 7.698 9.443 
    12.233l-11.462.873c4.302 8.485 8.508 2.028 14.107 12.233-2.919-1.546-8.156-5.076-11.383-4.823-.829.07-9.919 
    3.792-13.921 2.403-2.046-.708-3.113-4.448-4.02-6.318l-8.588-15.727c8.296-2.936 1.278-5.496 
    3.341-10.485 2.742-6.64 9.284-7.113 8.12-16.602zm39.675 99.609h1.763c1.226 3.897 2.107 3.888 
    5.29 6.116-2.557 1.512-2.486 1.424-2.645 4.369-3.958-2.272-4.188-2.7-8.817-2.621l-.881-6.99 
    4.408 1.747z"/>
</svg>