<?xml version="1.0" encoding="UTF-8" standalone="no"?>
<svg
   width="35.096264"
   height="34.941772"
   fill="none"
   version="1.1"
   id="svg3"
   sodipodi:docname="WhatsAppButtonGreenLarge.svg"
   inkscape:export-filename="singleGreen.svg"
   inkscape:export-xdpi="96"
   inkscape:export-ydpi="96"
   xmlns:inkscape="http://www.inkscape.org/namespaces/inkscape"
   xmlns:sodipodi="http://sodipodi.sourceforge.net/DTD/sodipodi-0.dtd"
   xmlns="http://www.w3.org/2000/svg"
   xmlns:svg="http://www.w3.org/2000/svg">
  <sodipodi:namedview
     id="namedview3"
     pagecolor="#ffffff"
     bordercolor="#666666"
     borderopacity="1.0"
     inkscape:showpageshadow="2"
     inkscape:pageopacity="0.0"
     inkscape:pagecheckerboard="0"
     inkscape:deskcolor="#d1d1d1">
    <inkscape:page
       x="0"
       y="0"
       width="35.096264"
       height="34.941772"
       id="page2"
       margin="0"
       bleed="0" />
  </sodipodi:namedview>
  <ellipse
     style="fill:#25d366;fill-opacity:1;stroke:#f0fff0;stroke-width:0.58;stroke-linecap:square;stroke-linejoin:round;stroke-dasharray:none"
     id="path5"
     cx="17.548134"
     cy="17.470886"
     rx="17.258131"
     ry="17.180885"
     inkscape:export-filename="singleGreen.svg"
     inkscape:export-xdpi="96"
     inkscape:export-ydpi="96" />
  <g
     clip-path="url(#a)"
     id="g1"
     transform="translate(-9.8308513,-6.4417673)">
    <path
       fill-rule="evenodd"
       clip-rule="evenodd"
       d="m 27.7462,12.4474 c 2.9024,0.014 5.7034,1.1536 7.7986,3.1621 2.1456,2.057 3.3822,4.8152 3.4903,7.7856 0.1056,2.9007 -0.9071,5.7501 -2.8279,7.9262 -2.1067,2.3867 -5.0371,3.7574 -8.2021,3.8483 a 11.3615,11.3615 0 0 1 -0.325,0.0046 c -1.7054,0 -3.3949,-0.3845 -4.9252,-1.1209 l -5.9481,1.323 a 0.0874,0.0874 0 0 1 -0.1033,-0.0974 l 1.0048,-6.0144 c -0.8575,-1.5668 -1.3361,-3.3321 -1.3877,-5.1278 -0.087,-3.0341 1.0127,-5.9203 3.0966,-8.1273 2.1606,-2.2882 5.1111,-3.562 8.2727,-3.562 z m -0.0633,1.9717 a 9.576,9.576 0 0 0 -0.2728,0.0039 c -5.1765,0.1485 -9.2671,4.4807 -9.1186,9.6572 0.0454,1.5806 0.4907,3.1322 1.2878,4.4869 l 0.173,0.2936 -0.7445,4.0812 4.0387,-0.9533 0.305,0.1587 c 1.3307,0.6924 2.8218,1.0553 4.3283,1.0553 0.0895,0 0.1792,-0.0013 0.2687,-0.0039 5.1766,-0.1484 9.2672,-4.4806 9.1187,-9.6571 -0.1459,-5.0851 -4.3294,-9.1225 -9.3843,-9.1225 z m -3.9285,3.9024 c 0.1899,0.0059 0.3802,0.0113 0.5462,0.0235 0.2029,0.0146 0.4275,0.031 0.6265,0.5128 0.2362,0.5721 0.747,2.0004 0.8139,2.1453 0.0669,0.1449 0.1093,0.313 0.0084,0.5007 -0.1009,0.1873 -0.1521,0.3049 -0.2995,0.467 -0.1477,0.1623 -0.3111,0.3628 -0.4431,0.4867 -0.1474,0.1379 -0.3006,0.2879 -0.143,0.5785 0.1575,0.2907 0.701,1.2424 1.5255,2.0249 1.0596,1.0056 1.9093,1.3374 2.2468,1.4948 0.1218,0.0569 0.223,0.0839 0.3114,0.0839 0.1214,0 0.2185,-0.0509 0.3112,-0.1448 0.1776,-0.18 0.712,-0.8036 0.937,-1.0905 0.1177,-0.1501 0.2243,-0.2033 0.34,-0.2033 0.0926,0 0.1911,0.0341 0.3061,0.08 0.2584,0.1032 1.639,0.8366 1.9198,0.9881 0.2808,0.1514 0.4686,0.2287 0.5363,0.3497 0.0676,0.1216 0.05,0.6927 -0.2081,1.3517 -0.2581,0.6591 -1.4419,1.2661 -1.9662,1.2975 -0.1535,0.0093 -0.3045,0.0307 -0.501,0.0307 -0.4751,0 -1.2159,-0.1251 -2.8986,-0.8498 -2.8631,-1.2329 -4.6017,-4.2625 -4.7385,-4.4571 -0.1365,-0.1949 -1.1167,-1.5831 -1.0736,-2.9873 0.0431,-1.404 0.801,-2.0718 1.0712,-2.3493 0.259,-0.2661 0.5558,-0.334 0.7474,-0.334 z"
       fill="#ffffff"
       id="path1" />
  </g>
  <defs
     id="defs3">
    <clipPath
       id="a">
      <path
         fill="#ffffff"
         transform="translate(16,11.5)"
         d="M 0,0 H 24 V 24 H 0 Z"
         id="path3" />
    </clipPath>
  </defs>
</svg>
