<?xml version="1.0" encoding="UTF-8" standalone="no"?>
<svg
   width="80.030617mm"
   height="58.857685mm"
   viewBox="0 0 372.1431 273.68868"
   version="1.1"
   id="svg1"
   sodipodi:docname="logo.svg"
   xmlns:inkscape="http://www.inkscape.org/namespaces/inkscape"
   xmlns:sodipodi="http://sodipodi.sourceforge.net/DTD/sodipodi-0.dtd"
   xmlns="http://www.w3.org/2000/svg"
   xmlns:svg="http://www.w3.org/2000/svg">
  <defs
     id="defs1" />
  <sodipodi:namedview
     id="namedview1"
     pagecolor="#ffffff"
     bordercolor="#666666"
     borderopacity="1.0"
     inkscape:showpageshadow="2"
     inkscape:pageopacity="0.0"
     inkscape:pagecheckerboard="0"
     inkscape:deskcolor="#d1d1d1"
     inkscape:document-units="mm" />
  <path
     id="Selection #2"
     fill="none"
     stroke="#000000"
     stroke-width="1"
     d="m 218.41947,9.2252733 c 0.1058,1.1096717 0.14988,2.3940957 0,3.4775547 -2.00141,6.955109 -9.0901,1.048509 -3.2534,-2.455259 1.13737,-0.6815307 2.1513,-0.7601687 3.2534,-1.0222957 z M 187.70181,59.903202 c 13.81589,-2.909612 15.64978,-28.55439 22.52687,-35.334748 1.95732,-1.931004 4.00282,-2.472734 6.5685,-3.110577 2.23064,8.545348 -6.1982,15.587834 -6.24228,21.843937 -0.0441,6.561915 6.70075,4.220245 9.73372,1.564026 1.42832,-1.249473 2.6274,-2.691173 3.7824,-4.185298 2.64503,-3.42513 3.33274,-4.97168 6.833,-7.863817 -0.57309,5.356133 -5.75735,17.195543 -9.74254,20.786686 -6.78892,6.116302 -13.86879,3.591143 -17.58947,-4.185298 h -1.76336 c -1.38423,5.8367 -5.31651,14.98494 -9.7778,19.039175 -2.2571,2.044592 -5.57221,4.255199 -8.55228,2.245556 -6.15411,-4.159085 -2.75083,-15.299493 -1.94851,-21.284731 -5.2019,5.417296 -6.02186,17.405248 -9.68964,24.465209 -1.70164,3.267853 -4.54064,6.955109 -8.74624,5.452246 -1.64874,-0.585417 -4.61118,-3.355228 -6.2511,-4.578489 -2.07194,7.260925 -9.05483,21.372108 -18.51523,19.799344 -2.96244,-0.498042 -7.05343,-4.062972 -9.69846,-5.819225 -1.09328,5.967764 -4.53182,14.102442 -9.71609,17.606212 -3.8353,2.59506 -8.23487,3.46008 -10.94163,-1.10093 -1.72808,-2.90961 -1.56938,-6.404645 -0.54664,-9.515222 0.61718,-1.861103 2.35408,-4.831879 1.49886,-6.77162 -1.52531,-3.477555 -5.74855,-0.03495 -7.15923,1.616451 -3.826481,4.473638 -4.187969,11.786991 -7.520712,18.261531 h -1.763355 l 2.645033,-11.358847 c -1.410684,-0.244652 -2.65385,-0.227177 -3.72068,-1.398012 -2.962438,-3.232902 0.969845,-13.062674 3.394459,-15.954811 1.410685,-1.677614 2.010226,-1.826153 3.852933,-2.743599 l 0.881678,3.49503 c 3.782394,-1.677614 14.521234,-9.637544 17.986234,-6.430855 3.89701,3.599881 -3.12114,11.979215 -3.7824,16.915945 -0.36149,2.708648 0.89049,6.544443 4.32022,6.072614 4.33786,-0.602892 8.20842,-8.510397 9.53094,-12.188916 4.14389,-11.524861 2.4687,-20.043997 15.14723,-26.212724 4.44365,9.995785 -6.76247,14.906302 -5.73091,22.700219 0.93458,7.042485 9.57502,1.83489 12.11425,-1.039772 2.51279,-2.839712 7.60888,-11.900576 8.8256,-15.544145 2.80373,-8.353121 1.35778,-15.692684 12.12307,-17.475149 -0.85523,4.517326 -1.79862,5.539622 -3.32393,9.611332 -0.70534,1.869841 -2.30999,6.80657 -2.16011,8.667674 0.22042,2.830974 2.17775,2.708648 3.7295,0.768906 1.2079,-1.502862 3.31511,-7.278399 4.27614,-9.43658 2.03667,-4.561014 7.50308,-15.343178 10.28036,-19.18771 1.70164,-2.350408 5.45759,-6.483281 8.26132,-3.119315 2.21302,2.498947 0.90813,5.688161 0,8.326909 -2.67148,6.972581 -3.40327,9.113287 -3.42972,16.601388 z M 145.38127,43.301814 c 0.70534,1.529076 1.35778,2.621272 1.48122,4.368784 0.1587,2.37662 -1.09328,5.670686 -3.42973,6.675507 -2.88309,1.240735 -6.48033,-1.336849 -5.40468,-4.919255 0.46729,-1.590238 1.70163,-2.83097 2.9977,-3.809579 1.32252,-1.013558 2.84782,-1.633926 4.35549,-2.315457 z M 39.579919,101.84356 c -3.138773,2.01838 -9.407503,6.12504 -13.189901,5.89786 -6.982889,-0.4194 -5.572204,-12.197651 -3.297475,-16.382949 2.35408,-4.342575 8.102619,-8.947277 12.078987,-11.909314 8.472924,-6.299792 19.423363,-12.57337 29.09537,-16.907207 4.743427,-2.123231 10.544867,-5.766799 15.870201,-4.403738 4.769879,1.223261 7.22976,4.823141 6.647853,9.628807 l -1.842707,8.737575 -4.32904,21.843937 c -0.925761,4.849349 -2.486331,8.134679 -2.354079,13.254899 0.132251,4.85809 -0.07935,16.01598 -3.967551,19.41489 -3.024155,2.63875 -5.404685,-1.13588 -5.933692,-3.83579 -0.537824,-2.80476 2.442248,-14.05876 3.288658,-17.47515 l 3.66778,-15.727637 5.704456,-25.338966 c -7.996818,2.909612 -27.384915,14.836402 -34.385437,20.201272 -4.70816,3.608619 -9.760174,7.584215 -12.34349,13.001511 z M 170.06825,248.63481 c -5.35178,3.95813 -7.02697,7.77645 -14.10685,9.79483 -13.27806,3.78337 -31.72277,-8.91233 -40.54836,-17.66738 l -7.34438,-8.48418 c -2.93599,-2.76982 -5.27244,-2.35915 -8.455293,-4.63092 -3.861749,-2.75234 -6.665485,-9.33173 -7.03579,-13.96264 -0.484923,-5.87165 2.036676,-7.99488 3.632513,-13.10637 0.996296,-3.19795 1.01393,-6.78035 3.588429,-9.24435 3.658961,-3.52124 8.772701,-2.62127 10.827001,-3.07563 2.06313,-0.46309 3.43855,-1.88731 5.66038,-2.10575 4.53182,-0.43688 10.3509,3.69599 12.34349,7.43567 l -4.40839,1.74752 4.24087,6.1163 c 2.45988,5.32992 -3.39446,12.14523 -7.58243,10.78217 -2.4687,-0.79512 -3.8353,-4.6047 -6.26873,-4.99789 -1.83389,-0.29708 -2.39816,1.54655 -2.44225,2.97077 -0.0793,2.33293 1.55175,5.75806 2.58332,7.84634 1.8427,3.74842 3.93228,7.51432 7.70586,9.6725 3.33275,1.89605 17.63356,2.5339 22.04195,2.56011 2.18656,0.0175 4.8316,-0.17475 6.55968,1.39801 1.95733,1.77373 2.63622,7.21724 6.33045,8.03857 3.27103,0.72522 5.0961,-3.26785 11.79685,-4.19404 2.79492,8.87738 11.5059,3.94065 17.63356,7.86382 -4.32022,1.10967 -5.2019,1.73004 -7.9351,5.24254 2.3629,0.56795 8.34949,0.70775 9.53975,2.24556 1.97496,2.55137 0.29096,8.24827 -5.08728,7.07744 -2.8919,-0.62911 -3.55316,-2.87467 -5.56339,-3.96686 -1.87797,-0.80386 -4.75224,-0.26213 -6.82418,0 z m -16.75188,-31.45526 c 0.43202,-7.61043 5.82789,-14.417 14.10685,-13.7879 3.2093,0.24466 6.01304,1.87858 8.81678,3.30281 v 2.62127 c -9.0901,4.5348 -7.83812,1.38054 -13.22517,2.89214 z m -9.69846,16.60139 h -1.76335 c -4.36431,4.98042 -5.58102,3.07562 -11.46181,1.74751 3.97636,8.45798 4.80514,3.46008 2.64503,13.10636 10.38616,-1.89605 7.15041,0.44562 14.98852,5.24255 l -1.76335,-6.99006 7.05342,-0.87376 c -3.74713,-5.99397 -7.52071,-2.1407 -9.69846,-12.2326 z"
     style="fill:#ff0000"
     sodipodi:nodetypes="ccccccccccccccccccccccccccccccccccccccccccccccccccccccccccsccccccccccccccccccccccccccccccccccccccccccccccccccccccccccc" />
  <path
     id="Selection #1"
     fill="none"
     stroke="#000000"
     stroke-width="1"
     d="m 182.02856,87.165422 c 2.54805,-4.534801 5.0961,-3.704731 9.69846,-4.875566 l 16.75188,-3.564931 c 5.15782,-1.048509 9.05483,-2.621272 13.22517,1.450438 l -14.10685,3.49503 v 2.621272 l 7.05342,1.747515 c -6.55968,2.98825 -5.49285,5.766799 -9.16063,9.253091 -2.45106,2.324195 -14.00104,6.028929 -15.31474,14.338359 l 1.40186,15.72764 c 0.14989,1.59897 0.40558,5.04158 -0.72297,6.30853 -1.64874,1.85236 -4.51419,0.46309 -6.18056,-0.56795 l -12.34349,-9.1395 c -3.50908,-1.97469 -5.68683,-1.11841 -7.9351,-4.4649 l -1.76336,0.87376 -0.88168,-0.87376 0.88168,-2.62127 c -2.12484,-1.88732 -2.12484,-3.35523 0,-5.24255 -0.27332,-2.8834 -0.46729,-4.41247 2.64503,-5.24254 l -0.88167,-2.62128 7.9351,-7.863813 c 0.72297,-3.78337 2.35408,-5.399821 6.17174,-6.116302 z m 37.91215,-8.737574 h -0.88168 l 0.88168,0.873757 z m -42.32054,11.358847 h -0.88167 l 0.88167,0.873757 z m -1.76335,1.747515 h -0.88168 l 0.88168,0.873757 z m -0.88168,0.873757 h -0.88168 l 0.88168,0.873758 z m -0.88168,0.873758 h -0.88168 l 0.88168,0.873757 z m -5.29007,6.116302 h -0.88167 l 0.88167,0.873753 z m -63.4808,29.707753 7.05342,-4.87557 c 2.72438,-1.47665 4.40839,-1.13588 6.58613,-3.25911 4.6729,-4.54354 2.71557,-8.54535 11.04743,-11.96174 l 3.52671,20.09642 -1.76336,-0.87376 v 2.62128 c 3.04179,1.03977 3.04179,6.87647 2.64504,9.61133 l 0.88168,1.74751 2.64503,1.74752 c -3.71186,-0.23592 -14.21265,0.38445 -13.42795,6.12504 0.44965,3.26785 5.34296,4.89304 5.52812,8.76379 l -3.56198,13.07141 -2.64504,0.87375 2.64504,1.74752 -2.64504,-3.49503 c -3.55316,-1.08346 -4.21442,-1.50286 -4.40839,-5.24255 -3.65015,-0.84754 -3.85293,-2.70864 -3.52671,-6.1163 -3.13877,-2.03585 -3.12996,-3.46008 -2.64503,-6.99006 l -1.76336,0.87376 0.88168,-3.49503 c -3.65897,-1.11841 -3.25339,-6.53571 -2.64504,-9.61133 l -0.88167,-2.62127 c -2.66267,-2.17566 -2.66267,-5.49594 -3.52671,-8.73758 z m 22.04194,-18.34891 h -0.88167 l 0.88167,0.87376 z m 36.1488,7.86382 h -0.88168 l 0.88168,0.87376 z m -34.38544,37.57157 h -0.88168 l 0.88168,0.87376 z m -12.34349,5.24255 h -0.88168 l 0.88168,0.87376 z m -28.213696,4.36878 c 3.464994,3.75716 8.358306,10.555 7.935101,15.72764 5.977775,3.86201 2.468698,9.11329 0.76706,13.98012 l -1.454769,6.1163 -4.602358,11.35885 -4.40839,-6.99006 c 3.332743,-5.24255 -3.006521,-5.04158 -4.408389,-10.48509 -0.864045,-3.35523 2.274729,-5.21633 2.600949,-7.82887 0.282137,-2.26303 -2.142477,-4.45616 -3.482627,-6.15125 l 3.526711,-0.87376 c 1.084464,-3.86201 1.851524,-4.61344 -1.763355,-6.99006 1.251982,-4.19403 1.930874,-5.04158 5.290067,-7.86382 z m 31.740406,1.74752 h -0.88168 l 0.88168,0.87376 z m -29.97705,0.87376 h -0.881678 l 0.881678,0.87375 z m -5.290068,3.49503 h -0.881677 l 0.881677,0.87375 z m 7.935101,0.87375 h -0.881678 l 0.881678,0.87376 z m 0.881678,1.74752 h -0.881678 l 0.881678,0.87376 z m 2.645034,4.36879 h -0.881678 l 0.881678,0.87375 z M 221.70407,225.2191 c -2.42462,4.96294 -6.39217,6.94637 -10.58014,10.41519 -2.23946,1.85237 -5.45758,4.3251 -6.55968,7.05996 -1.49885,3.72221 1.08446,6.57066 6.55968,4.02802 6.11003,-2.83971 17.51894,-13.7442 23.80531,-18.50618 1.93087,-1.46791 6.61258,-5.08527 9.18708,-3.55619 2.24828,1.33685 0.56427,4.66586 -0.50256,6.16873 -3.18285,4.50858 -8.37594,8.02983 -11.19731,12.73938 -1.60465,2.68243 -2.16011,5.67068 1.68401,6.57939 5.43995,1.27569 12.48456,-5.52214 15.63215,-9.20066 3.30629,-3.86201 5.06083,-8.82495 7.85575,-13.10637 5.18426,-7.95993 14.67112,-18.71588 22.30645,-24.33414 3.68541,-2.69991 8.73743,-6.57939 13.22517,-7.53179 4.01163,-0.84754 6.57731,0.30582 5.85434,4.77945 -0.71416,4.43869 -5.31652,9.18319 -8.49938,12.15397 l -23.72595,19.99157 c -3.46499,2.90961 -11.21494,9.0696 -8.72861,14.12866 2.48633,5.03284 8.32304,5.22507 11.54116,0.81259 2.03668,-2.78728 2.23946,-7.54926 4.16152,-11.26273 3.40328,5.82796 8.29659,0.89123 12.34349,-1.74752 -1.40186,6.29106 -3.33274,6.20368 0.88168,11.35885 -2.4687,0.1398 -3.85293,0.16602 -6.17174,1.25821 -5.33416,2.50769 -24.67817,19.9741 -28.62809,3.11058 -0.48492,-2.05333 -0.44965,-4.02802 -0.46728,-6.1163 -8.17316,4.01054 -10.53605,13.50829 -24.68698,13.08888 -3.6766,-0.10485 -6.4098,-0.49804 -6.77129,-4.73576 l 0.59954,-7.47937 c -4.19679,2.97078 -8.60518,8.23954 -12.34349,10.0919 -6.79774,3.36397 -12.36112,-1.19705 -12.00845,-8.34438 0.46729,-9.50648 9.01074,-21.39832 19.06187,-22.42062 2.26591,-0.23591 3.96755,0.19223 6.17175,0.57668 z m 69.65255,-20.97018 c -4.55827,-0.59415 -6.18938,1.35433 -9.69846,4.07171 -4.60235,3.56493 -16.28459,13.26364 -17.70409,18.64599 -0.50255,1.59024 -0.17633,2.05333 0,3.49503 8.71098,-4.19404 24.36958,-17.15186 27.40255,-26.21273 z m -202.785916,1.74752 h -0.881678 l 0.881678,0.87376 z m 2.645034,3.49503 H 90.33406 l 0.881678,0.87376 z m 198.377522,34.9503 10.58014,-7.9512 c 7.70586,-5.77553 18.42707,-11.25399 28.21369,-11.98795 3.54435,-0.26213 10.298,0.65532 10.7741,5.12022 0.30859,2.99699 -3.54434,7.29587 -5.29888,9.57638 -3.79121,4.91926 -4.45247,6.08135 -4.59354,12.23261 l 19.39691,-8.73758 c -1.29606,7.91624 -10.65948,12.70443 -17.63356,15.31697 -4.12625,1.55529 -9.81307,2.02712 -9.98941,-3.95812 -0.0882,-2.76108 2.64504,-7.78518 3.81767,-10.48509 -9.69846,4.33384 -22.50042,21.64297 -32.23414,6.97258 -1.3137,-1.98343 -2.21302,-3.88822 -3.03298,-6.09882 z m -14.10684,-11.35885 c 3.17404,-3.46008 11.06506,-6.97259 13.22517,-0.87376 -5.61629,-2.29798 -7.79404,-1.45044 -13.22517,0.87376 z m 52.90067,0 c -7.52953,-1.95722 -17.59829,3.13679 -23.8053,7.19976 -2.28355,1.49413 -6.89472,5.02411 -5.17545,8.25701 1.62229,3.04941 6.42743,1.01356 8.70216,0 6.54205,-2.90961 17.1839,-9.02592 20.27859,-15.45677 z m -54.66403,0.87376 h 0.88168 l -0.88168,0.87375 z"
     style="fill:#00008b"
     sodipodi:nodetypes="cccccccccccccccccccccccccccccccccccccccccccccccccccccccccccccccccccccccccccccccccccccccccccccsccccccccccccccccccccccccccccccccccccccccccccccccccccccccccccccccccccccccccccccccccccccccccccccccc" />
  <path
     id="Selection"
     fill="none"
     stroke="#000000"
     stroke-width="1"
     d="m 133.03778,100.09605 c 4.07335,0 17.29852,0.63784 20.24332,-0.891237 2.47752,-1.284424 4.82278,-4.770716 7.12396,-6.789096 4.43484,-3.896958 14.2391,-8.414284 20.24332,-7.173548 -7.06224,5.015367 -21.95377,20.306121 -21.00156,29.707751 0.28213,2.72613 1.93087,4.75324 3.36801,7.17355 -1.45477,-0.14854 -2.98007,-0.20096 -4.40839,0 -9.83071,2.90088 -1.33134,12.33746 -6.55087,17.93824 -3.16522,3.20669 -12.98711,4.75324 -15.52635,0 -3.76476,-6.79783 -3.1564,-21.25852 -6.13647,-30.35433 4.10861,-3.72221 3.0506,-4.44743 2.64503,-9.61133 z m -31.74041,38.44532 c -5.85434,2.3242 -7.026971,5.39109 -10.06876,10.48509 -1.163815,1.93975 -3.068239,5.56584 -5.713273,5.56584 -4.90213,0 -0.57309,-7.40946 0.458473,-9.06087 3.658963,-5.88038 12.34349,-12.38114 18.85027,-14.85387 1.43714,10.57246 5.36942,24.91082 10.83583,34.07654 4.02926,6.77162 7.08869,7.6978 9.44277,12.2326 0,0 -11.46182,0.87376 -11.46182,0.87376 4.30259,8.48419 8.5082,2.02712 14.10685,12.2326 -2.91835,-1.54655 -8.15552,-5.07653 -11.38246,-4.82314 -0.82878,0.0699 -9.91888,3.79211 -13.9217,2.40284 -2.04549,-0.70775 -3.11232,-4.44743 -4.020448,-6.31727 0,0 -8.587543,-15.72763 -8.587543,-15.72763 8.296589,-2.93583 1.278433,-5.49594 3.341559,-10.48509 2.742018,-6.64056 9.284072,-7.11239 8.120252,-16.6014 z m 39.67551,99.60836 c 0,0 1.76336,0 1.76336,0 1.22553,3.89695 2.10721,3.88822 5.29006,6.1163 -2.55686,1.5116 -2.48633,1.42422 -2.64503,4.36878 -3.95873,-2.27176 -4.18797,-2.69991 -8.81678,-2.62127 0,0 -0.88168,-6.99006 -0.88168,-6.99006 0,0 4.40839,1.74752 4.40839,1.74752 z"
     style="fill:#fffafa" />
</svg>
